<!--
  -  Copyright Amazon.com Inc. or its affiliates. All Rights Reserved.
  -
  -  Licensed under the Apache License, Version 2.0 (the "License"). You may not use this file except in compliance
  -  with the License. A copy of the License is located at
  -
  -     http://www.apache.org/licenses/LICENSE-2.0
  -
  -  or in the 'license' file accompanying this file. This file is distributed on an 'AS IS' BASIS, WITHOUT WARRANTIES
  -  OR CONDITIONS OF ANY KIND, express or implied. See the License for the specific language governing permissions
  -  and limitations under the License.
  -->

<!DOCTYPE svg PUBLIC "-//W3C//DTD SVG 1.1//EN" "https://www.w3.org/Graphics/SVG/1.1/DTD/svg11.dtd">
<svg xmlns="http://www.w3.org/2000/svg" id="sfn-svg" class="sfn-workflow-graph" width="196" height="367">


<g transform="translate(14.5,19.875)">
<g class="nodes">
<g class="node-container" transform="translate(88.07500076293945,19)">
<g class="node anchor">
<circle class="shape" x="-16.875" y="-9" r="26.875"/>
<text class="label">
<tspan xml:space="preserve" text-anchor="middle" alignment-baseline="central">Start</tspan>
</text>
</g>
</g>
<g class="node-container" transform="translate(88.07500076293945,311)">
<g class="node anchor">
<circle class="shape" x="-13.175000190734863" y="-9" r="23.175000190734863"/>
<text class="label">
<tspan xml:space="preserve" text-anchor="middle" alignment-baseline="central">End</tspan>
</text>
</g>
</g>
<g class="node-container" transform="translate(88.07500076293945,82)">
<g class="node state Task NotYetStarted">
<rect class="shape" rx="5" ry="5" x="-61.29999923706055" y="-19" width="122.5999984741211" height="38"/>
<text class="label">
<tspan xml:space="preserve" text-anchor="middle" alignment-baseline="central">VerificationTask</tspan>
</text>
</g>
</g>
<g class="node-container" transform="translate(88.07500076293945,165)">
<g class="node state Map NotYetStarted Container" transform="translate(-80.57500076293945,-39)">
<rect class="shape" rx="5" ry="5" x="-10" y="-10" width="159.1500015258789" height="76"/>
<rect class="shape" rx="5" ry="5" x="-5" y="-5" width="160.1500015258789" height="77"/>
<rect class="shape" rx="5" ry="5" x="0" y="0" width="161.1500015258789" height="78"/>
<g class="branches" transform="translate(20,20)">
<g class="branch" transform="translate(0,0)">
<g class="nodes">
<g class="node-container" transform="translate(60.57500076293945,19)">
<g class="node state Task NotYetStarted">
<rect class="shape" rx="5" ry="5" x="-60.57500076293945" y="-19" width="121.1500015258789" height="38"/>
<text class="label">
<tspan xml:space="preserve" text-anchor="middle" alignment-baseline="central">CalculationTask</tspan>
</text>
</g>
</g>
</g>
<g class="edges"/>
</g>
</g>
<path class="path" style="fill: none;" marker-end="url(#arrowhead21)" d="M80.57500076293945,0L80.57500076293945,1.6666666666666665C80.57500076293945,3.333333333333333,80.57500076293945,6.666666666666666,80.57500076293945,8.333333333333332C80.57500076293945,10,80.57500076293945,10,80.57500076293945,11.666666666666664C80.57500076293945,13.333333333333332,80.57500076293945,16.666666666666664,80.57500076293945,18.333333333333332L80.57500076293945,20"/>
</g>
</g>
<g class="node-container" transform="translate(88.07500076293945,248)">
<g class="node state Task NotYetStarted">
<rect class="shape" rx="5" ry="5" x="-75.05833435058594" y="-19" width="150.11666870117188" height="38"/>
<text class="label">
<tspan xml:space="preserve" text-anchor="middle" alignment-baseline="central">ResultProcessorTask</tspan>
</text>
</g>
</g>
</g>
<g class="edges">
<g class="edge">
<path class="path" style="fill: none;" marker-end="url(#arrowhead22)" d="M88.07500076293945,101L88.07500076293945,103.08333333333331C88.07500076293945,105.16666666666666,88.07500076293945,109.33333333333331,88.07500076293945,113.49999999999999C88.07500076293945,117.66666666666666,88.07500076293945,121.83333333333333,88.07500076293945,123.91666666666666L88.07500076293945,126"/>
<defs>
<marker id="arrowhead22" viewBox="0 0 10 10" refX="9" refY="5" markerUnits="strokeWidth" markerWidth="8" markerHeight="6" orient="auto">
<path d="M 0 0 L 10 5 L 0 10 z"/>
</marker>
</defs>
</g>
<g class="edge">
<path class="path" style="fill: none;" marker-end="url(#arrowhead23)" d="M88.07500076293945,45.875L88.07500076293945,46.64583333333333C88.07500076293945,47.416666666666664,88.07500076293945,48.95833333333333,88.07500076293945,51.8125C88.07500076293945,54.666666666666664,88.07500076293945,58.83333333333333,88.07500076293945,60.916666666666664L88.07500076293945,63"/>
<defs>
<marker id="arrowhead23" viewBox="0 0 10 10" refX="9" refY="5" markerUnits="strokeWidth" markerWidth="8" markerHeight="6" orient="auto">
<path d="M 0 0 L 10 5 L 0 10 z"/>
</marker>
</defs>
</g>
<g class="edge">
<path class="path" style="fill: none;" marker-end="url(#arrowhead24)" d="M88.07500076293945,204L88.07500076293945,206.08333333333331C88.07500076293945,208.16666666666666,88.07500076293945,212.33333333333331,88.07500076293945,216.49999999999997C88.07500076293945,220.66666666666663,88.07500076293945,224.83333333333331,88.07500076293945,226.91666666666666L88.07500076293945,229"/>
<defs>
<marker id="arrowhead24" viewBox="0 0 10 10" refX="9" refY="5" markerUnits="strokeWidth" markerWidth="8" markerHeight="6" orient="auto">
<path d="M 0 0 L 10 5 L 0 10 z"/>
</marker>
</defs>
</g>
<g class="edge">
<path class="path" style="fill: none;" marker-end="url(#arrowhead25)" d="M88.07500076293945,267L88.07500076293945,269.0833333333333C88.07500076293945,271.16666666666663,88.07500076293945,275.3333333333333,88.07500076293945,278.8041666348775C88.07500076293945,282.2749999364217,88.07500076293945,285.0499998728434,88.07500076293945,286.43749984105426L88.07500076293945,287.82499980926514"/>
<defs>
<marker id="arrowhead25" viewBox="0 0 10 10" refX="9" refY="5" markerUnits="strokeWidth" markerWidth="8" markerHeight="6" orient="auto">
<path d="M 0 0 L 10 5 L 0 10 z"/>
</marker>
</defs>
</g>
</g>
</g>
<style xmlns="http://www.w3.org/1999/xhtml">.node &gt; .shape {stroke: #555555;stroke-width: 0.6px;fill: #FFFFFF;} path {stroke: #555;background-color: #555;stroke-width: 1px;} .node.state.NotYetStarted &gt; .shape,.node.state.Container &gt; .shape {stroke-dasharray: 5 2;} .node.state.Failed &gt; .shape,rect.legend.Failed {fill: #DE322F;} .node.state.CaughtError &gt; .shape,rect.legend.CaughtError {fill: #FFA500;} .node.state.Succeeded &gt; .shape,rect.legend.Succeeded {fill: #2BD62E;} .node.state.InProgress &gt; .shape,rect.legend.InProgress {fill: #53c9ed;} .node.state.Cancelled &gt; .shape,rect.legend.Cancelled {fill: #dddddd;} .node.anchor &gt; .shape {fill: #FFDA75;} .node.state.hovered:not(.selected):not(.NotYetStarted) &gt; .shape,.node.selected &gt; .shape {stroke: #555555;stroke-width: 2px;} .node.state.Container.Failed &gt; .shape {fill: #EE9592;} .node.state.Container.CaughtError &gt; .shape {fill: #FFD27F;} .node.state.Container.Succeeded &gt; .shape {fill: #91EA9A;} .node.state.Container.InProgress &gt; .shape {fill :#A9E4F7;} .node.state.Container.Cancelled &gt; .shape {fill: #EEEEEE;} marker {fill: #555555;} .node.anchor,.node.state.NotYetStarted {cursor: default;} .node.state {cursor: pointer;} tspan .label {font-weight: normal;font-size: 12px;text-shadow: none;} </style>
</svg>
