<!DOCTYPE svg PUBLIC "-//W3C//DTD SVG 1.1//EN" "https://www.w3.org/Graphics/SVG/1.1/DTD/svg11.dtd">
<svg xmlns="http://www.w3.org/2000/svg" id="sfn-svg" class="sfn-workflow-graph" width="2455" height="1598">
    
    
<g transform="translate(12,20.375)"><g class="nodes"><g class="node-container" transform="translate(1022.1416473388672,18.75)"><g class="node anchor"><circle class="shape" x="-17.125" y="-8.75" r="27.125"/><text class="label"><tspan xml:space="preserve" text-anchor="middle" alignment-baseline="central">Start</tspan></text></g></g><g class="node-container" transform="translate(1022.1416473388672,1541.25)"><g class="node anchor"><circle class="shape" x="-13.425000190734863" y="-8.75" r="23.425000190734863"/><text class="label"><tspan xml:space="preserve" text-anchor="middle" alignment-baseline="central">End</tspan></text></g></g><g class="node-container" transform="translate(1022.1416473388672,81.25)"><g class="node state Task NotYetStarted"><rect class="shape" rx="5" ry="5" x="-61.54999923706055" y="-18.75" width="123.0999984741211" height="37.5"/><text class="label"><tspan xml:space="preserve" text-anchor="middle" alignment-baseline="central">VerificationTask</tspan></text></g></g><g class="node-container" transform="translate(1022.1416473388672,173.75)"><g class="node state Parallel NotYetStarted Container" transform="translate(-381.33331298828125,-48.75)"><rect class="shape" rx="19.5" ry="19.5" x="0" y="0" width="762.6666259765625" height="97.5"/><g class="branches" transform="translate(20,40)"><g class="branch" transform="translate(0,0)"><g class="nodes"><g class="node-container" transform="translate(189.34165954589844,18.75)"><g class="node state Task NotYetStarted"><rect class="shape" rx="5" ry="5" x="-189.34165954589844" y="-18.75" width="378.6833190917969" height="37.5"/><text class="label"><tspan xml:space="preserve" text-anchor="middle" alignment-baseline="central">AcquireLockInsertActivityValuesEventBridgeAcquireLock</tspan></text></g></g></g><g class="edges"/></g><g class="branch" transform="translate(398.6833190917969,0)"><g class="nodes"><g class="node-container" transform="translate(161.99166870117188,18.75)"><g class="node state Task NotYetStarted"><rect class="shape" rx="5" ry="5" x="-161.99166870117188" y="-18.75" width="323.98333740234375" height="37.5"/><text class="label"><tspan xml:space="preserve" text-anchor="middle" alignment-baseline="central">AcquireLockInsertActivityValuesSqsAcquireLock</tspan></text></g></g></g><g class="edges"/></g></g><path class="path" style="fill: none;" marker-end="url(#arrowhead1)" d="M381.33331298828125,0L381.33331298828125,3.333333333333333C381.33331298828125,6.666666666666666,381.33331298828125,13.333333333333332,352.6680374145508,16.666666666666664C324.0027618408203,20,266.6722106933594,20,238.00693511962888,23.33333333333333C209.34165954589844,26.666666666666664,209.34165954589844,33.33333333333333,209.3416595458984,36.666666666666664L209.34165954589844,40"/><path class="path" style="fill: none;" marker-end="url(#arrowhead2)" d="M381.33331298828125,0L381.33331298828125,3.333333333333333C381.33331298828125,6.666666666666666,381.33331298828125,13.333333333333332,414.55692545572913,16.666666666666664C447.78053792317706,20,514.2277628580729,20,547.4513753255209,23.33333333333333C580.6749877929688,26.666666666666664,580.6749877929688,33.33333333333333,580.6749877929688,36.666666666666664L580.6749877929688,40"/></g></g><g class="node-container" transform="translate(1022.1416473388672,286.25)"><g class="node state Map NotYetStarted Container" transform="translate(-80.82500076293945,-38.75)"><rect class="shape" rx="5" ry="5" x="-10" y="-10" width="159.6500015258789" height="75.5"/><rect class="shape" rx="5" ry="5" x="-5" y="-5" width="160.6500015258789" height="76.5"/><rect class="shape" rx="5" ry="5" x="0" y="0" width="161.6500015258789" height="77.5"/><g class="branches" transform="translate(20,20)"><g class="branch" transform="translate(0,0)"><g class="nodes"><g class="node-container" transform="translate(60.82500076293945,18.75)"><g class="node state Task NotYetStarted"><rect class="shape" rx="5" ry="5" x="-60.82500076293945" y="-18.75" width="121.6500015258789" height="37.5"/><text class="label"><tspan xml:space="preserve" text-anchor="middle" alignment-baseline="central">CalculationTask</tspan></text></g></g></g><g class="edges"/></g></g><path class="path" style="fill: none;" marker-end="url(#arrowhead3)" d="M80.82500076293945,0L80.82500076293945,1.6666666666666665C80.82500076293945,3.333333333333333,80.82500076293945,6.666666666666666,80.82500076293945,8.333333333333332C80.82500076293945,10,80.82500076293945,10,80.82500076293945,11.666666666666664C80.82500076293945,13.333333333333332,80.82500076293945,16.666666666666664,80.82500076293945,18.333333333333332L80.82500076293945,20"/></g></g><g class="node-container" transform="translate(1022.1416473388672,368.75)"><g class="node state Wait NotYetStarted"><rect class="shape" rx="5" ry="5" x="-94.28333282470703" y="-18.75" width="188.56666564941406" height="37.5"/><text class="label"><tspan xml:space="preserve" text-anchor="middle" alignment-baseline="central">Wait For SQL Insert Result</tspan></text></g></g><g class="node-container" transform="translate(958.9416465759277,431.25)"><g class="node state Task NotYetStarted"><rect class="shape" rx="5" ry="5" x="-91.4000015258789" y="-18.75" width="182.8000030517578" height="37.5"/><text class="label"><tspan xml:space="preserve" text-anchor="middle" alignment-baseline="central">Process SQL Insert Result</tspan></text></g></g><g class="node-container" transform="translate(1022.1416473388672,493.75)"><g class="node state Choice NotYetStarted"><rect class="shape" rx="5" ry="5" x="-58.11666488647461" y="-18.75" width="116.23332977294922" height="37.5"/><text class="label"><tspan xml:space="preserve" text-anchor="middle" alignment-baseline="central">Job Complete?</tspan></text></g></g><g class="node-container" transform="translate(404.4499816894531,1201.25)"><g class="node state Parallel NotYetStarted Container" transform="translate(-404.4499816894531,-48.75)"><rect class="shape" rx="19.5" ry="19.5" x="0" y="0" width="808.8999633789062" height="97.5"/><g class="branches" transform="translate(20,40)"><g class="branch" transform="translate(0,0)"><g class="nodes"><g class="node-container" transform="translate(200.89999389648438,18.75)"><g class="node state Task NotYetStarted"><rect class="shape" rx="5" ry="5" x="-200.89999389648438" y="-18.75" width="401.79998779296875" height="37.5"/><text class="label"><tspan xml:space="preserve" text-anchor="middle" alignment-baseline="central">ReleaseLockInsertActivityValuesFailEventBridgeReleaseLock</tspan></text></g></g></g><g class="edges"/></g><g class="branch" transform="translate(421.79998779296875,0)"><g class="nodes"><g class="node-container" transform="translate(173.5500030517578,18.75)"><g class="node state Task NotYetStarted"><rect class="shape" rx="5" ry="5" x="-173.5500030517578" y="-18.75" width="347.1000061035156" height="37.5"/><text class="label"><tspan xml:space="preserve" text-anchor="middle" alignment-baseline="central">ReleaseLockInsertActivityValuesFailSqsReleaseLock</tspan></text></g></g></g><g class="edges"/></g></g><path class="path" style="fill: none;" marker-end="url(#arrowhead4)" d="M404.4499816894531,0L404.44998168945307,3.333333333333333C404.4499816894531,6.666666666666666,404.4499816894531,13.333333333333332,373.85831705729163,16.666666666666664C343.2666524251302,20,282.08332316080725,20,251.49165852864581,23.33333333333333C220.89999389648438,26.666666666666664,220.89999389648438,33.33333333333333,220.89999389648438,36.666666666666664L220.89999389648438,40"/><path class="path" style="fill: none;" marker-end="url(#arrowhead5)" d="M404.4499816894531,0L404.44998168945307,3.333333333333333C404.4499816894531,6.666666666666666,404.4499816894531,13.333333333333332,439.599983215332,16.666666666666664C474.74998474121094,20,545.0499877929688,20,580.1999893188477,23.33333333333333C615.3499908447266,26.666666666666664,615.3499908447266,33.33333333333333,615.3499908447266,36.666666666666664L615.3499908447266,40"/></g></g><g class="node-container" transform="translate(1639.8333129882812,586.25)"><g class="node state Parallel NotYetStarted Container" transform="translate(-430.5666809082031,-48.75)"><rect class="shape" rx="19.5" ry="19.5" x="0" y="0" width="861.1333618164062" height="97.5"/><g class="branches" transform="translate(20,40)"><g class="branch" transform="translate(0,0)"><g class="nodes"><g class="node-container" transform="translate(213.9583282470703,18.75)"><g class="node state Task NotYetStarted"><rect class="shape" rx="5" ry="5" x="-213.9583282470703" y="-18.75" width="427.9166564941406" height="37.5"/><text class="label"><tspan xml:space="preserve" text-anchor="middle" alignment-baseline="central">ReleaseLockInsertActivityValuesSuccessEventBridgeReleaseLock</tspan></text></g></g></g><g class="edges"/></g><g class="branch" transform="translate(447.9166564941406,0)"><g class="nodes"><g class="node-container" transform="translate(186.60833740234375,18.75)"><g class="node state Task NotYetStarted"><rect class="shape" rx="5" ry="5" x="-186.60833740234375" y="-18.75" width="373.2166748046875" height="37.5"/><text class="label"><tspan xml:space="preserve" text-anchor="middle" alignment-baseline="central">ReleaseLockInsertActivityValuesSuccessSqsReleaseLock</tspan></text></g></g></g><g class="edges"/></g></g><path class="path" style="fill: none;" marker-end="url(#arrowhead6)" d="M430.5666809082031,0L430.56668090820307,3.333333333333333C430.5666809082031,6.666666666666666,430.5666809082031,13.333333333333332,397.7986221313476,16.666666666666664C365.0305633544922,20,299.49444580078125,20,266.7263870239257,23.33333333333333C233.95832824707028,26.666666666666664,233.95832824707028,33.33333333333333,233.95832824707026,36.666666666666664L233.9583282470703,40"/><path class="path" style="fill: none;" marker-end="url(#arrowhead7)" d="M430.5666809082031,0L430.56668090820307,3.333333333333333C430.5666809082031,6.666666666666666,430.5666809082031,13.333333333333332,467.89306640624994,16.666666666666664C505.2194519042969,20,579.8722229003906,20,617.1986083984375,23.33333333333333C654.5249938964844,26.666666666666664,654.5249938964844,33.33333333333333,654.5249938964844,36.666666666666664L654.5249938964844,40"/></g></g><g class="node-container" transform="translate(1022.1416473388672,1478.75)"><g class="node state Task NotYetStarted"><rect class="shape" rx="5" ry="5" x="-75.30833435058594" y="-18.75" width="150.61666870117188" height="37.5"/><text class="label"><tspan xml:space="preserve" text-anchor="middle" alignment-baseline="central">ResultProcessorTask</tspan></text></g></g><g class="node-container" transform="translate(1639.8333129882812,1201.25)"><g class="node state Parallel NotYetStarted Container" transform="translate(-790.933349609375,-233.75)"><rect class="shape" rx="93.5" ry="93.5" x="0" y="0" width="1581.86669921875" height="467.5"/><g class="branches" transform="translate(20,40)"><g class="branch" transform="translate(0,0)"><g class="nodes"><g class="node-container" transform="translate(374.933349609375,48.75)"><g class="node state Parallel NotYetStarted Container" transform="translate(-373.73333740234375,-48.75)"><rect class="shape" rx="19.5" ry="19.5" x="0" y="0" width="747.4666748046875" height="97.5"/><g class="branches" transform="translate(20,40)"><g class="branch" transform="translate(0,0)"><g class="nodes"><g class="node-container" transform="translate(185.5416717529297,18.75)"><g class="node state Task NotYetStarted"><rect class="shape" rx="5" ry="5" x="-185.5416717529297" y="-18.75" width="371.0833435058594" height="37.5"/><text class="label"><tspan xml:space="preserve" text-anchor="middle" alignment-baseline="central">AcquireLockMetricAggregationEventBridgeAcquireLock</tspan></text></g></g></g><g class="edges"/></g><g class="branch" transform="translate(391.0833435058594,0)"><g class="nodes"><g class="node-container" transform="translate(158.19166564941406,18.75)"><g class="node state Task NotYetStarted"><rect class="shape" rx="5" ry="5" x="-158.19166564941406" y="-18.75" width="316.3833312988281" height="37.5"/><text class="label"><tspan xml:space="preserve" text-anchor="middle" alignment-baseline="central">AcquireLockMetricAggregationSqsAcquireLock</tspan></text></g></g></g><g class="edges"/></g></g><path class="path" style="fill: none;" marker-end="url(#arrowhead8)" d="M373.73333740234375,0L373.73333740234375,3.333333333333333C373.73333740234375,6.666666666666666,373.73333740234375,13.333333333333332,345.7013931274414,16.666666666666664C317.66944885253906,20,261.6055603027344,20,233.573616027832,23.33333333333333C205.5416717529297,26.666666666666664,205.5416717529297,33.33333333333333,205.54167175292966,36.666666666666664L205.5416717529297,40"/><path class="path" style="fill: none;" marker-end="url(#arrowhead9)" d="M373.73333740234375,0L373.73333740234375,3.333333333333333C373.73333740234375,6.666666666666666,373.73333740234375,13.333333333333332,406.32361602783203,16.666666666666664C438.9138946533203,20,504.0944519042968,20,536.6847305297852,23.33333333333333C569.2750091552734,26.666666666666664,569.2750091552734,33.33333333333333,569.2750091552733,36.666666666666664L569.2750091552734,40"/></g></g><g class="node-container" transform="translate(374.933349609375,141.25)"><g class="node state Task NotYetStarted"><rect class="shape" rx="5" ry="5" x="-95.63333129882812" y="-18.75" width="191.26666259765625" height="37.5"/><text class="label"><tspan xml:space="preserve" text-anchor="middle" alignment-baseline="central">JobMetricAggregationTask</tspan></text></g></g><g class="node-container" transform="translate(374.933349609375,203.75)"><g class="node state Choice NotYetStarted"><rect class="shape" rx="5" ry="5" x="-119.66666412353516" y="-18.75" width="239.3333282470703" height="37.5"/><text class="label"><tspan xml:space="preserve" text-anchor="middle" alignment-baseline="central">Processing Metric Complete (Job)?</tspan></text></g></g><g class="node-container" transform="translate(374.933349609375,296.25)"><g class="node state Parallel NotYetStarted Container" transform="translate(-374.933349609375,-48.75)"><rect class="shape" rx="19.5" ry="19.5" x="0" y="0" width="749.86669921875" height="97.5"/><g class="branches" transform="translate(20,40)"><g class="branch" transform="translate(0,0)"><g class="nodes"><g class="node-container" transform="translate(186.14166259765625,18.75)"><g class="node state Task NotYetStarted"><rect class="shape" rx="5" ry="5" x="-186.14166259765625" y="-18.75" width="372.2833251953125" height="37.5"/><text class="label"><tspan xml:space="preserve" text-anchor="middle" alignment-baseline="central">ReleaseLockMetricAggregationEventBridgeReleaseLock</tspan></text></g></g></g><g class="edges"/></g><g class="branch" transform="translate(392.2833251953125,0)"><g class="nodes"><g class="node-container" transform="translate(158.7916717529297,18.75)"><g class="node state Task NotYetStarted"><rect class="shape" rx="5" ry="5" x="-158.7916717529297" y="-18.75" width="317.5833435058594" height="37.5"/><text class="label"><tspan xml:space="preserve" text-anchor="middle" alignment-baseline="central">ReleaseLockMetricAggregationSqsReleaseLock</tspan></text></g></g></g><g class="edges"/></g></g><path class="path" style="fill: none;" marker-end="url(#arrowhead10)" d="M374.933349609375,0L374.933349609375,3.333333333333333C374.933349609375,6.666666666666666,374.933349609375,13.333333333333332,346.80140177408856,16.666666666666664C318.66945393880206,20,262.40555826822913,20,234.2736104329427,23.33333333333333C206.14166259765625,26.666666666666664,206.14166259765625,33.33333333333333,206.14166259765622,36.666666666666664L206.14166259765625,40"/><path class="path" style="fill: none;" marker-end="url(#arrowhead11)" d="M374.933349609375,0L374.933349609375,3.333333333333333C374.933349609375,6.666666666666666,374.933349609375,13.333333333333332,407.62362416585285,16.666666666666664C440.3138987223307,20,505.69444783528644,20,538.3847223917643,23.33333333333333C571.0749969482422,26.666666666666664,571.0749969482422,33.33333333333333,571.0749969482422,36.666666666666664L571.0749969482422,40"/></g></g><g class="node-container" transform="translate(374.933349609375,388.75)"><g class="node state Pass NotYetStarted"><rect class="shape" rx="5" ry="5" x="-99.76667022705078" y="-18.75" width="199.53334045410156" height="37.5"/><text class="label"><tspan xml:space="preserve" text-anchor="middle" alignment-baseline="central">Processing Metric Pass (Job)</tspan></text></g></g></g><g class="edges"><g class="edge"><path class="path" style="fill: none;" marker-end="url(#arrowhead12)" d="M374.933349609375,97.5L374.933349609375,99.58333333333333C374.933349609375,101.66666666666666,374.933349609375,105.83333333333333,374.933349609375,110C374.933349609375,114.16666666666666,374.933349609375,118.33333333333331,374.933349609375,120.41666666666666L374.933349609375,122.5"/><defs><marker id="arrowhead12" viewBox="0 0 10 10" refX="9" refY="5" markerUnits="strokeWidth" markerWidth="8" markerHeight="6" orient="auto"><path d="M 0 0 L 10 5 L 0 10 z"/></marker></defs></g><g class="edge"><path class="path" style="fill: none;" marker-end="url(#arrowhead13)" d="M365.933349609375,160L364.933349609375,162.08333333333331C363.933349609375,164.16666666666666,361.933349609375,168.33333333333331,361.933349609375,172.5C361.933349609375,176.66666666666666,363.933349609375,180.83333333333331,364.933349609375,182.91666666666666L365.933349609375,185"/><defs><marker id="arrowhead13" viewBox="0 0 10 10" refX="9" refY="5" markerUnits="strokeWidth" markerWidth="8" markerHeight="6" orient="auto"><path d="M 0 0 L 10 5 L 0 10 z"/></marker></defs></g><g class="edge"><path class="path" style="fill: none;" marker-end="url(#arrowhead14)" d="M374.933349609375,222.5L374.933349609375,224.5833333333333C374.933349609375,226.66666666666663,374.933349609375,230.83333333333331,374.933349609375,235C374.933349609375,239.16666666666666,374.933349609375,243.33333333333331,374.933349609375,245.41666666666666L374.933349609375,247.5"/><defs><marker id="arrowhead14" viewBox="0 0 10 10" refX="9" refY="5" markerUnits="strokeWidth" markerWidth="8" markerHeight="6" orient="auto"><path d="M 0 0 L 10 5 L 0 10 z"/></marker></defs></g><g class="edge"><path class="path" style="fill: none;" marker-end="url(#arrowhead15)" d="M383.933349609375,185L384.933349609375,182.91666666666666C385.933349609375,180.83333333333331,387.933349609375,176.66666666666666,387.933349609375,172.5C387.933349609375,168.33333333333331,385.933349609375,164.16666666666666,384.933349609375,162.08333333333331L383.933349609375,160"/><defs><marker id="arrowhead15" viewBox="0 0 10 10" refX="9" refY="5" markerUnits="strokeWidth" markerWidth="8" markerHeight="6" orient="auto"><path d="M 0 0 L 10 5 L 0 10 z"/></marker></defs></g><g class="edge"><path class="path" style="fill: none;" marker-end="url(#arrowhead16)" d="M374.933349609375,345L374.933349609375,347.0833333333333C374.933349609375,349.16666666666663,374.933349609375,353.3333333333333,374.933349609375,357.5C374.933349609375,361.66666666666663,374.933349609375,365.8333333333333,374.933349609375,367.9166666666667L374.933349609375,370"/><defs><marker id="arrowhead16" viewBox="0 0 10 10" refX="9" refY="5" markerUnits="strokeWidth" markerWidth="8" markerHeight="6" orient="auto"><path d="M 0 0 L 10 5 L 0 10 z"/></marker></defs></g></g></g><g class="branch" transform="translate(769.86669921875,0)"><g class="nodes"><g class="node-container" transform="translate(386,48.75)"><g class="node state Parallel NotYetStarted Container" transform="translate(-384.79998779296875,-48.75)"><rect class="shape" rx="19.5" ry="19.5" x="0" y="0" width="769.5999755859375" height="97.5"/><g class="branches" transform="translate(20,40)"><g class="branch" transform="translate(0,0)"><g class="nodes"><g class="node-container" transform="translate(191.0749969482422,18.75)"><g class="node state Task NotYetStarted"><rect class="shape" rx="5" ry="5" x="-191.0749969482422" y="-18.75" width="382.1499938964844" height="37.5"/><text class="label"><tspan xml:space="preserve" text-anchor="middle" alignment-baseline="central">AcquireLockPipelineAggregationEventBridgeAcquireLock</tspan></text></g></g></g><g class="edges"/></g><g class="branch" transform="translate(402.1499938964844,0)"><g class="nodes"><g class="node-container" transform="translate(163.72500610351562,18.75)"><g class="node state Task NotYetStarted"><rect class="shape" rx="5" ry="5" x="-163.72500610351562" y="-18.75" width="327.45001220703125" height="37.5"/><text class="label"><tspan xml:space="preserve" text-anchor="middle" alignment-baseline="central">AcquireLockPipelineAggregationSqsAcquireLock</tspan></text></g></g></g><g class="edges"/></g></g><path class="path" style="fill: none;" marker-end="url(#arrowhead17)" d="M384.79998779296875,0L384.79998779296875,3.333333333333333C384.79998779296875,6.666666666666666,384.79998779296875,13.333333333333332,355.84582265218097,16.666666666666664C326.8916575113932,20,268.9833272298177,20,240.0291620890299,23.33333333333333C211.07499694824216,26.666666666666664,211.07499694824216,33.33333333333333,211.07499694824213,36.666666666666664L211.0749969482422,40"/><path class="path" style="fill: none;" marker-end="url(#arrowhead18)" d="M384.79998779296875,0L384.79998779296875,3.333333333333333C384.79998779296875,6.666666666666666,384.79998779296875,13.333333333333332,418.31248982747394,16.666666666666664C451.82499186197913,20,518.8499959309895,20,552.3624979654948,23.33333333333333C585.875,26.666666666666664,585.875,33.33333333333333,585.875,36.666666666666664L585.875,40"/></g></g><g class="node-container" transform="translate(386,141.25)"><g class="node state Task NotYetStarted"><rect class="shape" rx="5" ry="5" x="-101.16666412353516" y="-18.75" width="202.3333282470703" height="37.5"/><text class="label"><tspan xml:space="preserve" text-anchor="middle" alignment-baseline="central">JobPipelineAggregationTask</tspan></text></g></g><g class="node-container" transform="translate(386,233.75)"><g class="node state Parallel NotYetStarted Container" transform="translate(-386,-48.75)"><rect class="shape" rx="19.5" ry="19.5" x="0" y="0" width="772" height="97.5"/><g class="branches" transform="translate(20,40)"><g class="branch" transform="translate(0,0)"><g class="nodes"><g class="node-container" transform="translate(191.6750030517578,18.75)"><g class="node state Task NotYetStarted"><rect class="shape" rx="5" ry="5" x="-191.6750030517578" y="-18.75" width="383.3500061035156" height="37.5"/><text class="label"><tspan xml:space="preserve" text-anchor="middle" alignment-baseline="central">ReleaseLockPipelineAggregationEventBridgeReleaseLock</tspan></text></g></g></g><g class="edges"/></g><g class="branch" transform="translate(403.3500061035156,0)"><g class="nodes"><g class="node-container" transform="translate(164.3249969482422,18.75)"><g class="node state Task NotYetStarted"><rect class="shape" rx="5" ry="5" x="-164.3249969482422" y="-18.75" width="328.6499938964844" height="37.5"/><text class="label"><tspan xml:space="preserve" text-anchor="middle" alignment-baseline="central">ReleaseLockPipelineAggregationSqsReleaseLock</tspan></text></g></g></g><g class="edges"/></g></g><path class="path" style="fill: none;" marker-end="url(#arrowhead19)" d="M386,0L385.99999999999994,3.333333333333333C386,6.666666666666666,386,13.333333333333332,356.9458338419596,16.666666666666664C327.89166768391925,20,269.7833353678385,20,240.72916920979816,23.33333333333333C211.6750030517578,26.666666666666664,211.6750030517578,33.33333333333333,211.6750030517578,36.666666666666664L211.6750030517578,40"/><path class="path" style="fill: none;" marker-end="url(#arrowhead20)" d="M386,0L385.99999999999994,3.333333333333333C386,6.666666666666666,386,13.333333333333332,419.6125005086262,16.666666666666664C453.22500101725257,20,520.4500020345051,20,554.0625025431315,23.33333333333333C587.6750030517578,26.666666666666664,587.6750030517578,33.33333333333333,587.6750030517577,36.666666666666664L587.6750030517578,40"/></g></g></g><g class="edges"><g class="edge"><path class="path" style="fill: none;" marker-end="url(#arrowhead21)" d="M386,97.5L385.99999999999994,99.58333333333333C386,101.66666666666666,386,105.83333333333333,385.99999999999994,110C386,114.16666666666666,386,118.33333333333331,385.99999999999994,120.41666666666666L386,122.5"/><defs><marker id="arrowhead21" viewBox="0 0 10 10" refX="9" refY="5" markerUnits="strokeWidth" markerWidth="8" markerHeight="6" orient="auto"><path d="M 0 0 L 10 5 L 0 10 z"/></marker></defs></g><g class="edge"><path class="path" style="fill: none;" marker-end="url(#arrowhead22)" d="M386,160L385.99999999999994,162.08333333333331C386,164.16666666666666,386,168.33333333333331,385.99999999999994,172.5C386,176.66666666666666,386,180.83333333333331,385.99999999999994,182.91666666666666L386,185"/><defs><marker id="arrowhead22" viewBox="0 0 10 10" refX="9" refY="5" markerUnits="strokeWidth" markerWidth="8" markerHeight="6" orient="auto"><path d="M 0 0 L 10 5 L 0 10 z"/></marker></defs></g></g></g></g><path class="path" style="fill: none;" marker-end="url(#arrowhead23)" d="M790.933349609375,0L790.9333496093748,3.333333333333333C790.9333496093749,6.666666666666666,790.9333496093749,13.333333333333332,724.9333496093749,16.666666666666664C658.9333496093749,20,526.933349609375,20,460.93334960937494,23.33333333333333C394.933349609375,26.666666666666664,394.933349609375,33.33333333333333,394.93334960937494,36.666666666666664L394.933349609375,40"/><path class="path" style="fill: none;" marker-end="url(#arrowhead24)" d="M790.933349609375,0L790.9333496093748,3.333333333333333C790.9333496093749,6.666666666666666,790.9333496093749,13.333333333333332,855.088907877604,16.666666666666664C919.2444661458333,20,1047.5555826822915,20,1111.7111409505208,23.33333333333333C1175.86669921875,26.666666666666664,1175.86669921875,33.33333333333333,1175.86669921875,36.666666666666664L1175.86669921875,40"/></g></g><g class="node-container" transform="translate(1639.8333129882812,893.75)"><g class="node state Parallel NotYetStarted Container" transform="translate(-421.433349609375,-48.75)"><rect class="shape" rx="19.5" ry="19.5" x="0" y="0" width="842.86669921875" height="97.5"/><g class="branches" transform="translate(20,40)"><g class="branch" transform="translate(0,0)"><g class="nodes"><g class="node-container" transform="translate(209.39166259765625,18.75)"><g class="node state Task NotYetStarted"><rect class="shape" rx="5" ry="5" x="-209.39166259765625" y="-18.75" width="418.7833251953125" height="37.5"/><text class="label"><tspan xml:space="preserve" text-anchor="middle" alignment-baseline="central">ReleaseLockInsertLatestActivityValuesEventBridgeReleaseLock</tspan></text></g></g></g><g class="edges"/></g><g class="branch" transform="translate(438.7833251953125,0)"><g class="nodes"><g class="node-container" transform="translate(182.0416717529297,18.75)"><g class="node state Task NotYetStarted"><rect class="shape" rx="5" ry="5" x="-182.0416717529297" y="-18.75" width="364.0833435058594" height="37.5"/><text class="label"><tspan xml:space="preserve" text-anchor="middle" alignment-baseline="central">ReleaseLockInsertLatestActivityValuesSqsReleaseLock</tspan></text></g></g></g><g class="edges"/></g></g><path class="path" style="fill: none;" marker-end="url(#arrowhead25)" d="M421.433349609375,0L421.433349609375,3.333333333333333C421.433349609375,6.666666666666666,421.433349609375,13.333333333333332,389.42640177408856,16.666666666666664C357.41945393880206,20,293.40555826822913,20,261.3986104329427,23.33333333333333C229.39166259765625,26.666666666666664,229.39166259765625,33.33333333333333,229.39166259765622,36.666666666666664L229.39166259765625,40"/><path class="path" style="fill: none;" marker-end="url(#arrowhead26)" d="M421.433349609375,0L421.433349609375,3.333333333333333C421.433349609375,6.666666666666666,421.433349609375,13.333333333333332,457.99862416585285,16.666666666666664C494.5638987223307,20,567.6944478352864,20,604.2597223917643,23.33333333333333C640.8249969482422,26.666666666666664,640.8249969482422,33.33333333333333,640.8249969482422,36.666666666666664L640.8249969482422,40"/></g></g><g class="node-container" transform="translate(1639.8333129882812,801.25)"><g class="node state Task NotYetStarted"><rect class="shape" rx="5" ry="5" x="-94.99166870117188" y="-18.75" width="189.98333740234375" height="37.5"/><text class="label"><tspan xml:space="preserve" text-anchor="middle" alignment-baseline="central">JobInsertLatestValuesTask</tspan></text></g></g><g class="node-container" transform="translate(1639.8333129882812,708.75)"><g class="node state Parallel NotYetStarted Container" transform="translate(-420.23333740234375,-48.75)"><rect class="shape" rx="19.5" ry="19.5" x="0" y="0" width="840.4666748046875" height="97.5"/><g class="branches" transform="translate(20,40)"><g class="branch" transform="translate(0,0)"><g class="nodes"><g class="node-container" transform="translate(208.7916717529297,18.75)"><g class="node state Task NotYetStarted"><rect class="shape" rx="5" ry="5" x="-208.7916717529297" y="-18.75" width="417.5833435058594" height="37.5"/><text class="label"><tspan xml:space="preserve" text-anchor="middle" alignment-baseline="central">AcquireLockInsertLatestActivityValuesEventBridgeAcquireLock</tspan></text></g></g></g><g class="edges"/></g><g class="branch" transform="translate(437.5833435058594,0)"><g class="nodes"><g class="node-container" transform="translate(181.44166564941406,18.75)"><g class="node state Task NotYetStarted"><rect class="shape" rx="5" ry="5" x="-181.44166564941406" y="-18.75" width="362.8833312988281" height="37.5"/><text class="label"><tspan xml:space="preserve" text-anchor="middle" alignment-baseline="central">AcquireLockInsertLatestActivityValuesSqsAcquireLock</tspan></text></g></g></g><g class="edges"/></g></g><path class="path" style="fill: none;" marker-end="url(#arrowhead27)" d="M420.23333740234375,0L420.23333740234364,3.333333333333333C420.2333374023437,6.666666666666666,420.2333374023437,13.333333333333332,388.32639312744135,16.666666666666664C356.419448852539,20,292.6055603027344,20,260.69861602783203,23.33333333333333C228.7916717529297,26.666666666666664,228.7916717529297,33.33333333333333,228.79167175292966,36.666666666666664L228.7916717529297,40"/><path class="path" style="fill: none;" marker-end="url(#arrowhead28)" d="M420.23333740234375,0L420.23333740234364,3.333333333333333C420.2333374023437,6.666666666666666,420.2333374023437,13.333333333333332,456.6986160278319,16.666666666666664C493.16389465332026,20,566.0944519042969,20,602.559730529785,23.33333333333333C639.0250091552734,26.666666666666664,639.0250091552734,33.33333333333333,639.0250091552733,36.666666666666664L639.0250091552734,40"/></g></g></g><g class="edges"><g class="edge"><path class="path" style="fill: none;" marker-end="url(#arrowhead29)" d="M1022.1416473388672,100L1022.1416473388672,102.08333333333331C1022.1416473388672,104.16666666666666,1022.1416473388672,108.33333333333333,1022.1416473388672,112.49999999999999C1022.1416473388672,116.66666666666666,1022.1416473388672,120.83333333333333,1022.1416473388672,122.91666666666666L1022.1416473388672,125"/><defs><marker id="arrowhead29" viewBox="0 0 10 10" refX="9" refY="5" markerUnits="strokeWidth" markerWidth="8" markerHeight="6" orient="auto"><path d="M 0 0 L 10 5 L 0 10 z"/></marker></defs></g><g class="edge"><path class="path" style="fill: none;" marker-end="url(#arrowhead30)" d="M1022.1416473388672,45.875L1022.1416473388672,46.5625C1022.1416473388672,47.25,1022.1416473388672,48.62499999999999,1022.1416473388672,51.39583333333333C1022.1416473388672,54.16666666666666,1022.1416473388672,58.33333333333333,1022.1416473388672,60.416666666666664L1022.1416473388672,62.5"/><defs><marker id="arrowhead30" viewBox="0 0 10 10" refX="9" refY="5" markerUnits="strokeWidth" markerWidth="8" markerHeight="6" orient="auto"><path d="M 0 0 L 10 5 L 0 10 z"/></marker></defs></g><g class="edge"><path class="path" style="fill: none;" marker-end="url(#arrowhead31)" d="M1022.1416473388672,222.5L1022.1416473388672,224.5833333333333C1022.1416473388672,226.66666666666663,1022.1416473388672,230.83333333333331,1022.1416473388672,235C1022.1416473388672,239.16666666666666,1022.1416473388672,243.33333333333331,1022.1416473388672,245.41666666666666L1022.1416473388672,247.5"/><defs><marker id="arrowhead31" viewBox="0 0 10 10" refX="9" refY="5" markerUnits="strokeWidth" markerWidth="8" markerHeight="6" orient="auto"><path d="M 0 0 L 10 5 L 0 10 z"/></marker></defs></g><g class="edge"><path class="path" style="fill: none;" marker-end="url(#arrowhead32)" d="M1022.1416473388672,325L1022.1416473388672,327.0833333333333C1022.1416473388672,329.16666666666663,1022.1416473388672,333.3333333333333,1022.1416473388672,337.5C1022.1416473388672,341.66666666666663,1022.1416473388672,345.8333333333333,1022.1416473388672,347.91666666666663L1022.1416473388672,350"/><defs><marker id="arrowhead32" viewBox="0 0 10 10" refX="9" refY="5" markerUnits="strokeWidth" markerWidth="8" markerHeight="6" orient="auto"><path d="M 0 0 L 10 5 L 0 10 z"/></marker></defs></g><g class="edge"><path class="path" style="fill: none;" marker-end="url(#arrowhead33)" d="M984.2216468811035,387.5L980.0083134969075,389.58333333333326C975.7949801127115,391.66666666666663,967.3683133443196,395.83333333333326,963.1549799601237,399.99999999999994C958.9416465759276,404.16666666666663,958.9416465759276,408.3333333333333,958.9416465759275,410.41666666666663L958.9416465759277,412.5"/><defs><marker id="arrowhead33" viewBox="0 0 10 10" refX="9" refY="5" markerUnits="strokeWidth" markerWidth="8" markerHeight="6" orient="auto"><path d="M 0 0 L 10 5 L 0 10 z"/></marker></defs></g><g class="edge"><path class="path" style="fill: none;" marker-end="url(#arrowhead34)" d="M958.9416465759277,450L958.9416465759275,452.0833333333333C958.9416465759276,454.16666666666663,958.9416465759276,458.3333333333333,963.1549799601236,462.5C967.3683133443196,466.66666666666663,975.7949801127115,470.83333333333326,980.0083134969076,472.91666666666663L984.2216468811035,475"/><defs><marker id="arrowhead34" viewBox="0 0 10 10" refX="9" refY="5" markerUnits="strokeWidth" markerWidth="8" markerHeight="6" orient="auto"><path d="M 0 0 L 10 5 L 0 10 z"/></marker></defs></g><g class="edge"><path class="path" style="fill: none;" marker-end="url(#arrowhead35)" d="M964.0249824523926,496.69021415327484L870.762482325236,501.4085117943956C777.4999821980794,506.1268094355165,590.9749819437662,515.5634047177582,497.7124818166097,530.4900356922125C404.4499816894531,545.4166666666666,404.4499816894531,565.8333333333333,404.44998168945307,586.25C404.4499816894531,606.6666666666666,404.4499816894531,627.0833333333333,404.44998168945307,647.5C404.4499816894531,667.9166666666666,404.4499816894531,688.3333333333333,404.44998168945307,708.75C404.4499816894531,729.1666666666666,404.4499816894531,749.5833333333333,404.44998168945307,764.9999999999999C404.4499816894531,780.4166666666665,404.4499816894531,790.8333333333333,404.44998168945307,801.25C404.4499816894531,811.6666666666666,404.4499816894531,822.0833333333333,404.44998168945307,837.5C404.4499816894531,852.9166666666666,404.4499816894531,873.3333333333333,404.44998168945307,893.7499999999999C404.4499816894531,914.1666666666665,404.4499816894531,934.5833333333333,404.44998168945307,977.7083333333333C404.4499816894531,1020.8333333333333,404.4499816894531,1086.6666666666665,404.44998168945307,1119.5833333333333L404.4499816894531,1152.5"/><defs><marker id="arrowhead35" viewBox="0 0 10 10" refX="9" refY="5" markerUnits="strokeWidth" markerWidth="8" markerHeight="6" orient="auto"><path d="M 0 0 L 10 5 L 0 10 z"/></marker></defs></g><g class="edge"><path class="path" style="fill: none;" marker-end="url(#arrowhead36)" d="M1080.2583122253418,496.69021415327484L1173.520812352498,501.4085117943956C1266.7833124796548,506.1268094355165,1453.3083127339678,515.5634047177582,1546.5708128611245,522.3650356922125C1639.833312988281,529.1666666666666,1639.833312988281,533.3333333333333,1639.8333129882808,535.4166666666666L1639.8333129882812,537.5"/><defs><marker id="arrowhead36" viewBox="0 0 10 10" refX="9" refY="5" markerUnits="strokeWidth" markerWidth="8" markerHeight="6" orient="auto"><path d="M 0 0 L 10 5 L 0 10 z"/></marker></defs></g><g class="edge"><path class="path" style="fill: none;" marker-end="url(#arrowhead37)" d="M1060.061647796631,475L1064.274981180827,472.9166666666666C1068.4883145650228,470.83333333333326,1076.9149813334147,466.66666666666663,1081.1283147176107,459.375C1085.3416481018066,452.0833333333333,1085.3416481018066,441.66666666666663,1085.3416481018066,431.25C1085.3416481018066,420.8333333333333,1085.3416481018066,410.41666666666663,1081.1283147176107,403.12499999999994C1076.9149813334147,395.83333333333326,1068.4883145650228,391.66666666666663,1064.274981180827,389.5833333333333L1060.061647796631,387.5"/><defs><marker id="arrowhead37" viewBox="0 0 10 10" refX="9" refY="5" markerUnits="strokeWidth" markerWidth="8" markerHeight="6" orient="auto"><path d="M 0 0 L 10 5 L 0 10 z"/></marker></defs></g><g class="edge"><path class="path" style="fill: none;" marker-end="url(#arrowhead38)" d="M404.4499816894531,1250L404.44998168945307,1282.9166666666665C404.4499816894531,1315.8333333333333,404.4499816894531,1381.6666666666665,494.84720357259107,1419.1566720085088C585.2444254557291,1456.6466773503512,766.0388692220051,1465.7933547007021,856.4360911051432,1470.3666933758777L946.8333129882812,1474.9400320510533"/><defs><marker id="arrowhead38" viewBox="0 0 10 10" refX="9" refY="5" markerUnits="strokeWidth" markerWidth="8" markerHeight="6" orient="auto"><path d="M 0 0 L 10 5 L 0 10 z"/></marker></defs></g><g class="edge"><path class="path" style="fill: none;" marker-end="url(#arrowhead39)" d="M1022.1416473388672,1497.5L1022.1416473388672,1499.5833333333333C1022.1416473388672,1501.6666666666665,1022.1416473388672,1505.8333333333333,1022.1416473388672,1509.2208333015442C1022.1416473388672,1512.608333269755,1022.1416473388672,1515.21666653951,1022.1416473388672,1516.5208331743877L1022.1416473388672,1517.8249998092651"/><defs><marker id="arrowhead39" viewBox="0 0 10 10" refX="9" refY="5" markerUnits="strokeWidth" markerWidth="8" markerHeight="6" orient="auto"><path d="M 0 0 L 10 5 L 0 10 z"/></marker></defs></g><g class="edge"><path class="path" style="fill: none;" marker-end="url(#arrowhead40)" d="M1639.8333129882812,1435L1639.8333129882808,1437.0833333333333C1639.833312988281,1439.1666666666665,1639.833312988281,1443.3333333333333,1549.4360911051429,1449.9900053418423C1459.038869222005,1456.6466773503512,1278.244425455729,1465.7933547007021,1187.847203572591,1470.3666933758777L1097.4499816894531,1474.9400320510533"/><defs><marker id="arrowhead40" viewBox="0 0 10 10" refX="9" refY="5" markerUnits="strokeWidth" markerWidth="8" markerHeight="6" orient="auto"><path d="M 0 0 L 10 5 L 0 10 z"/></marker></defs></g><g class="edge"><path class="path" style="fill: none;" marker-end="url(#arrowhead41)" d="M1639.8333129882812,942.5L1639.8333129882808,944.5833333333331C1639.833312988281,946.6666666666665,1639.833312988281,950.8333333333333,1639.8333129882808,955C1639.833312988281,959.1666666666666,1639.833312988281,963.3333333333333,1639.8333129882808,965.4166666666666L1639.8333129882812,967.5"/><defs><marker id="arrowhead41" viewBox="0 0 10 10" refX="9" refY="5" markerUnits="strokeWidth" markerWidth="8" markerHeight="6" orient="auto"><path d="M 0 0 L 10 5 L 0 10 z"/></marker></defs></g><g class="edge"><path class="path" style="fill: none;" marker-end="url(#arrowhead42)" d="M1639.8333129882812,820L1639.8333129882808,822.0833333333333C1639.833312988281,824.1666666666666,1639.833312988281,828.3333333333333,1639.8333129882808,832.5C1639.833312988281,836.6666666666666,1639.833312988281,840.8333333333333,1639.8333129882808,842.9166666666665L1639.8333129882812,845"/><defs><marker id="arrowhead42" viewBox="0 0 10 10" refX="9" refY="5" markerUnits="strokeWidth" markerWidth="8" markerHeight="6" orient="auto"><path d="M 0 0 L 10 5 L 0 10 z"/></marker></defs></g><g class="edge"><path class="path" style="fill: none;" marker-end="url(#arrowhead43)" d="M1639.8333129882812,757.5L1639.8333129882808,759.5833333333333C1639.833312988281,761.6666666666666,1639.833312988281,765.8333333333333,1639.8333129882808,769.9999999999999C1639.833312988281,774.1666666666665,1639.833312988281,778.3333333333333,1639.8333129882808,780.4166666666666L1639.8333129882812,782.5"/><defs><marker id="arrowhead43" viewBox="0 0 10 10" refX="9" refY="5" markerUnits="strokeWidth" markerWidth="8" markerHeight="6" orient="auto"><path d="M 0 0 L 10 5 L 0 10 z"/></marker></defs></g><g class="edge"><path class="path" style="fill: none;" marker-end="url(#arrowhead44)" d="M1639.8333129882812,635L1639.8333129882808,637.0833333333333C1639.833312988281,639.1666666666666,1639.833312988281,643.3333333333333,1639.8333129882808,647.5C1639.833312988281,651.6666666666666,1639.833312988281,655.8333333333333,1639.8333129882808,657.9166666666666L1639.8333129882812,660"/><defs><marker id="arrowhead44" viewBox="0 0 10 10" refX="9" refY="5" markerUnits="strokeWidth" markerWidth="8" markerHeight="6" orient="auto"><path d="M 0 0 L 10 5 L 0 10 z"/></marker></defs></g></g></g><style xmlns="http://www.w3.org/1999/xhtml">.node &gt; .shape {stroke: #555555;stroke-width: 0.6px;fill: #FFFFFF;} path {stroke: #555;background-color: #555;stroke-width: 1px;} .node.state.NotYetStarted &gt; .shape,.node.state.Container &gt; .shape {stroke-dasharray: 5 2;} .node.state.Failed &gt; .shape,rect.legend.Failed {fill: #DE322F;} .node.state.CaughtError &gt; .shape,rect.legend.CaughtError {fill: #FFA500;} .node.state.Succeeded &gt; .shape,rect.legend.Succeeded {fill: #2BD62E;} .node.state.InProgress &gt; .shape,rect.legend.InProgress {fill: #53c9ed;} .node.state.Cancelled &gt; .shape,rect.legend.Cancelled {fill: #dddddd;} .node.anchor &gt; .shape {fill: #FFDA75;} .node.state.hovered:not(.selected):not(.NotYetStarted) &gt; .shape,.node.selected &gt; .shape {stroke: #555555;stroke-width: 2px;} .node.state.Container.Failed &gt; .shape {fill: #EE9592;} .node.state.Container.CaughtError &gt; .shape {fill: #FFD27F;} .node.state.Container.Succeeded &gt; .shape {fill: #91EA9A;} .node.state.Container.InProgress &gt; .shape {fill :#A9E4F7;} .node.state.Container.Cancelled &gt; .shape {fill: #EEEEEE;} marker {fill: #555555;} .node.anchor,.node.state.NotYetStarted {cursor: default;} .node.state {cursor: pointer;} tspan .label {font-weight: normal;font-size: 12px;text-shadow: none;} </style></svg>